<?xml version="1.0" standalone="no"?><!DOCTYPE svg PUBLIC "-//W3C//DTD SVG 1.1//EN" "http://www.w3.org/Graphics/SVG/1.1/DTD/svg11.dtd"><svg class="icon" width="64px" height="64.00px" viewBox="0 0 1024 1024" version="1.1" xmlns="http://www.w3.org/2000/svg"><path d="M517.12 508.16m-460.8 0a460.8 460.8 0 1 0 921.6 0 460.8 460.8 0 1 0-921.6 0Z" fill="#00569E" /><path d="M707.80928 679.65952v14.06976c0 29.11232-76.27776 54.02624-76.27776 54.02624l-31.78496-4.0448s-50.82112-6.35904-82.62656-6.35904c-31.76448 0-82.62656 6.35904-82.62656 6.35904l-31.54944 3.95264s-76.50304-24.94464-76.50304-53.94432v-14.06976c0-27.05408 35.25632-54.35392 76.58496-75.28448 2.00704-1.024 26.83904 139.63264 26.83904 139.63264l10.98752-0.28672s-21.22752-145.21344-19.06688-146.19648c11.43808-5.23264 18.96448-10.12736 30.21824-14.19264 4.16768-1.51552 24.12544-12.35968 12.96384-41.55392-25.84576-26.34752-43.45856-51.88608-43.45856-109.4656h191.85664c0 56.9856-18.08384 82.75968-43.75552 109.1584h0.1536c-10.91584 33.09568 6.54336 40.94976 9.32864 41.86112 11.13088 3.66592 22.2208 9.44128 33.39264 14.20288 2.77504 1.1776-19.06688 146.18624-19.06688 146.18624l11.60192-0.3072s23.68512-140.16512 26.10176-138.98752c41.9328 20.5312 76.68736 47.64672 76.68736 75.24352z m-81.33632-308.00896c0-66.17088-90.12224-99.24608-90.12224-99.24608-12.75904-5.75488-25.41568-4.44416-38.48192 0 0 0-90.12224 29.05088-90.12224 99.24608 0 10.496-19.05664 8.25344-25.36448 41.45152h269.44512c-11.45856-33.4336-25.35424-30.95552-25.35424-41.45152z m0 0" fill="#FFFFFF" /></svg>